<svg width="363" height="243" viewBox="0 0 363 243" fill="none" xmlns="http://www.w3.org/2000/svg">
<rect x="1" y="1" width="361" height="241" rx="23" fill="white"/>
<rect x="1" y="1" width="361" height="241" rx="23" stroke="#D9D9D9" stroke-width="2"/>
<mask id="path-2-inside-1_36_20" fill="white">
<path d="M1 155H362V242H1V155Z"/>
</mask>
<path d="M1 157H362V153H1V157Z" fill="#D9D9D9" mask="url(#path-2-inside-1_36_20)"/>
<path d="M22.098 176.086H37.92V178.03H22.098V176.086ZM28.794 174.718H31.026V177.238H28.794V174.718ZM22.692 179.452H36.534V181.306H24.744V191.584H22.692V179.452ZM35.418 179.452H37.506V189.28C37.506 190.324 37.29 190.936 36.588 191.26C35.868 191.584 34.86 191.638 33.438 191.638C33.348 191.062 33.024 190.108 32.736 189.568C33.672 189.622 34.716 189.622 35.022 189.604C35.328 189.604 35.418 189.514 35.418 189.262V179.452ZM27.228 181.072H29.136C28.992 183.232 28.38 184.456 25.518 185.104C25.356 184.654 24.906 183.952 24.528 183.61C26.76 183.214 27.138 182.512 27.228 181.072ZM30.558 181.072H32.43V182.44C32.43 182.836 32.466 182.872 32.79 182.872C32.952 182.872 33.546 182.872 33.726 182.872C34.014 182.872 34.086 182.746 34.14 181.864C34.482 182.116 35.238 182.368 35.724 182.476C35.544 184.006 35.076 184.42 33.96 184.42C33.636 184.42 32.808 184.42 32.502 184.42C30.9 184.42 30.558 183.952 30.558 182.476V181.072ZM26.508 185.104H28.416V190.774H26.508V185.104ZM27.696 185.104H33.618V189.802H27.696V188.218H31.674V186.688H27.696V185.104ZM25.32 177.994L27.462 177.634C27.786 178.21 28.128 178.984 28.272 179.506L26.04 179.956C25.932 179.434 25.608 178.606 25.32 177.994ZM32.358 177.616L34.752 177.976C34.32 178.768 33.942 179.416 33.618 179.902L31.476 179.542C31.782 178.984 32.16 178.174 32.358 177.616ZM46.866 174.736H49.08V177.31H46.866V174.736ZM40.368 176.14H55.686V180.208H53.49V178.102H42.474V180.208H40.368V176.14ZM43.104 179.254H52.824V181.09H43.104V179.254ZM44.868 182.458L46.524 181.486C50.772 184.438 50.736 189.514 48.81 190.9C48.126 191.494 47.55 191.656 46.596 191.656C46.146 191.674 45.606 191.656 45.066 191.62C45.03 191.026 44.832 190.162 44.454 189.55C45.12 189.622 45.714 189.64 46.182 189.64C46.632 189.64 46.974 189.586 47.28 189.262C48.306 188.47 48.306 184.906 44.868 182.458ZM47.712 179.722L49.494 180.46C47.586 182.404 44.31 183.79 41.304 184.582C41.106 184.168 40.548 183.304 40.206 182.908C43.068 182.332 46.146 181.216 47.712 179.722ZM46.308 183.304L47.694 184.276C46.2 185.428 43.554 186.76 41.538 187.462C41.304 186.994 40.854 186.256 40.458 185.824C42.42 185.356 45.03 184.276 46.308 183.304ZM47.766 185.014L49.242 186.112C47.316 187.948 43.806 189.856 40.944 190.81C40.692 190.27 40.224 189.496 39.81 189.028C42.654 188.326 46.092 186.634 47.766 185.014ZM50.502 180.028C51.366 183.808 53.22 187.03 56.406 188.452C55.92 188.884 55.236 189.748 54.912 190.342C51.51 188.524 49.71 184.924 48.684 180.388L50.502 180.028ZM54.012 181.198L55.704 182.656C54.462 183.592 52.896 184.6 51.726 185.194L50.34 183.898C51.474 183.25 53.076 182.098 54.012 181.198ZM63.858 188.956H71.922V190.918H63.858V188.956ZM62.958 176.482H69.33V178.39H62.958V176.482ZM63.426 174.61L65.856 175.096C64.326 177.724 62.166 180.136 58.926 182.08C58.62 181.54 57.9 180.748 57.414 180.37C60.384 178.804 62.382 176.608 63.426 174.61ZM68.646 176.482H69.06L69.42 176.374L70.914 177.166C68.808 182.764 64.002 186.436 58.638 188.236C58.368 187.642 57.828 186.76 57.378 186.31C62.346 184.87 66.99 181.378 68.646 176.842V176.482ZM60.6 180.442L62.202 179.038C63.444 179.92 65.082 181.198 65.874 182.134L64.128 183.7C63.444 182.764 61.842 181.378 60.6 180.442ZM70.914 183.466H73.164V191.638H70.914V183.466ZM64.776 183.466H71.994V185.428H64.776V191.602H62.616V185.068L64.254 183.466H64.776ZM86.106 180.136H88.05V187.534H86.106V180.136ZM83.91 183.88H90.552V185.446H83.91V183.88ZM81.534 186.544H92.532V188.29H81.534V186.544ZM82.65 181.162H90.552V182.836H84.612V191.584H82.65V181.162ZM89.652 181.162H91.65V189.478C91.65 190.396 91.47 190.936 90.858 191.242C90.246 191.566 89.418 191.602 88.284 191.602C88.194 191.044 87.87 190.216 87.6 189.712C88.302 189.748 89.094 189.748 89.328 189.748C89.562 189.73 89.652 189.676 89.652 189.46V181.162ZM89.886 174.862L91.416 176.356C89.274 176.95 86.412 177.328 83.982 177.526C83.91 177.094 83.658 176.392 83.46 175.978C85.728 175.762 88.32 175.33 89.886 174.862ZM83.208 175.582L85.26 175.996C84.81 177.886 84 179.812 83.118 181C82.704 180.694 81.786 180.172 81.282 179.956C82.182 178.894 82.848 177.22 83.208 175.582ZM85.71 177.796L87.492 177.328C87.87 178.048 88.176 179.02 88.266 179.686L86.412 180.226C86.34 179.578 86.052 178.552 85.71 177.796ZM89.022 177.472L90.786 176.77C91.47 177.76 92.172 179.092 92.478 179.992L90.624 180.802C90.354 179.902 89.67 178.498 89.022 177.472ZM77.97 176.41H80.004V191.638H77.97V176.41ZM75.63 179.884H81.822V181.846H75.63V179.884ZM77.952 180.676L79.194 181.18C78.636 183.718 77.556 186.994 76.332 188.794C76.134 188.164 75.666 187.282 75.342 186.742C76.422 185.266 77.484 182.638 77.952 180.676ZM80.598 175.024L82.11 176.554C80.382 177.256 78.042 177.742 76.062 178.012C75.972 177.562 75.702 176.86 75.468 176.446C77.322 176.122 79.356 175.6 80.598 175.024ZM79.968 182.296C80.4 182.638 81.876 184.132 82.218 184.51L81.012 186.166C80.616 185.374 79.554 183.808 79.05 183.124L79.968 182.296Z" fill="black"/>
<path d="M279.375 226.021L282 224.438L284.625 226.042L283.937 223.042L286.25 221.042L283.208 220.771L282 217.938L280.792 220.75L277.75 221.021L280.062 223.042L279.375 226.021ZM278.104 227.769L279.137 223.342L275.702 220.365L280.227 219.973L282 215.798L283.772 219.973L288.297 220.364L284.862 223.341L285.896 227.768L282 225.418L278.104 227.769Z" fill="black"/>
<path d="M290.656 224.295V223.23L294.428 217.273H295.267V218.841H294.734L292.037 223.111V223.179H297.206V224.295H290.656ZM294.794 226V223.972L294.803 223.486V217.273H296.051V226H294.794ZM299.219 226.081C298.987 226.081 298.786 225.999 298.619 225.834C298.451 225.666 298.367 225.464 298.367 225.229C298.367 224.996 298.451 224.797 298.619 224.632C298.786 224.464 298.987 224.381 299.219 224.381C299.452 224.381 299.653 224.464 299.82 224.632C299.988 224.797 300.072 224.996 300.072 225.229C300.072 225.385 300.032 225.528 299.952 225.659C299.876 225.787 299.773 225.889 299.646 225.966C299.518 226.043 299.376 226.081 299.219 226.081ZM304.417 226.119C303.806 226.119 303.267 226.014 302.798 225.804C302.332 225.594 301.967 225.304 301.703 224.935C301.439 224.565 301.308 224.145 301.311 223.673C301.308 223.304 301.383 222.964 301.537 222.655C301.693 222.342 301.904 222.082 302.172 221.875C302.439 221.665 302.737 221.531 303.066 221.474V221.423C302.632 221.318 302.284 221.085 302.022 220.724C301.761 220.364 301.632 219.949 301.635 219.48C301.632 219.034 301.75 218.636 301.988 218.287C302.23 217.935 302.561 217.658 302.981 217.456C303.402 217.254 303.88 217.153 304.417 217.153C304.949 217.153 305.423 217.256 305.841 217.46C306.261 217.662 306.592 217.939 306.833 218.291C307.075 218.641 307.197 219.037 307.2 219.48C307.197 219.949 307.064 220.364 306.799 220.724C306.535 221.085 306.191 221.318 305.768 221.423V221.474C306.095 221.531 306.389 221.665 306.65 221.875C306.914 222.082 307.125 222.342 307.281 222.655C307.44 222.964 307.521 223.304 307.524 223.673C307.521 224.145 307.387 224.565 307.123 224.935C306.859 225.304 306.493 225.594 306.024 225.804C305.558 226.014 305.022 226.119 304.417 226.119ZM304.417 225.041C304.778 225.041 305.091 224.982 305.355 224.862C305.619 224.74 305.824 224.571 305.968 224.355C306.113 224.136 306.187 223.881 306.19 223.588C306.187 223.284 306.108 223.016 305.951 222.783C305.798 222.55 305.589 222.366 305.325 222.233C305.061 222.099 304.758 222.033 304.417 222.033C304.074 222.033 303.768 222.099 303.501 222.233C303.234 222.366 303.024 222.55 302.87 222.783C302.717 223.016 302.642 223.284 302.645 223.588C302.642 223.881 302.711 224.136 302.853 224.355C302.998 224.571 303.204 224.74 303.471 224.862C303.738 224.982 304.054 225.041 304.417 225.041ZM304.417 220.98C304.707 220.98 304.964 220.922 305.189 220.805C305.413 220.689 305.589 220.527 305.717 220.32C305.848 220.112 305.914 219.869 305.917 219.591C305.914 219.318 305.849 219.08 305.721 218.875C305.596 218.67 305.422 218.513 305.197 218.402C304.973 218.288 304.713 218.232 304.417 218.232C304.116 218.232 303.852 218.288 303.625 218.402C303.4 218.513 303.225 218.67 303.1 218.875C302.975 219.08 302.914 219.318 302.917 219.591C302.914 219.869 302.977 220.112 303.105 220.32C303.233 220.527 303.409 220.689 303.633 220.805C303.86 220.922 304.122 220.98 304.417 220.98Z" fill="black"/>
<path d="M309.438 221.636C309.438 220.568 309.579 219.585 309.86 218.688C310.141 217.79 310.552 216.962 311.092 216.203H312.259C312.049 216.484 311.853 216.83 311.671 217.239C311.489 217.648 311.33 218.097 311.194 218.585C311.058 219.071 310.951 219.575 310.874 220.098C310.798 220.618 310.759 221.131 310.759 221.636C310.759 222.312 310.826 222.997 310.96 223.69C311.093 224.384 311.273 225.027 311.501 225.621C311.728 226.214 311.981 226.699 312.259 227.074H311.092C310.552 226.315 310.141 225.487 309.86 224.589C309.579 223.692 309.438 222.707 309.438 221.636ZM316.897 217.273V226H315.576V218.594H315.525L313.436 219.957V218.696L315.614 217.273H316.897ZM322.296 226.145C321.623 226.142 321.047 225.964 320.57 225.612C320.093 225.26 319.728 224.747 319.475 224.074C319.222 223.401 319.096 222.589 319.096 221.641C319.096 220.695 319.222 219.886 319.475 219.216C319.73 218.545 320.097 218.034 320.574 217.682C321.054 217.33 321.628 217.153 322.296 217.153C322.963 217.153 323.536 217.331 324.013 217.686C324.49 218.038 324.855 218.55 325.108 219.22C325.364 219.888 325.492 220.695 325.492 221.641C325.492 222.592 325.365 223.405 325.113 224.078C324.86 224.749 324.495 225.261 324.017 225.616C323.54 225.969 322.966 226.145 322.296 226.145ZM322.296 225.007C322.887 225.007 323.348 224.719 323.681 224.142C324.016 223.565 324.184 222.732 324.184 221.641C324.184 220.916 324.107 220.304 323.953 219.804C323.803 219.301 323.586 218.92 323.301 218.662C323.02 218.401 322.685 218.27 322.296 218.27C321.708 218.27 321.246 218.56 320.911 219.139C320.576 219.719 320.407 220.553 320.404 221.641C320.404 222.368 320.479 222.983 320.63 223.486C320.783 223.986 321 224.365 321.282 224.624C321.563 224.879 321.901 225.007 322.296 225.007ZM330.042 226.145C329.369 226.142 328.793 225.964 328.316 225.612C327.839 225.26 327.474 224.747 327.221 224.074C326.968 223.401 326.842 222.589 326.842 221.641C326.842 220.695 326.968 219.886 327.221 219.216C327.477 218.545 327.843 218.034 328.32 217.682C328.8 217.33 329.374 217.153 330.042 217.153C330.71 217.153 331.282 217.331 331.759 217.686C332.237 218.038 332.602 218.55 332.854 219.22C333.11 219.888 333.238 220.695 333.238 221.641C333.238 222.592 333.112 223.405 332.859 224.078C332.606 224.749 332.241 225.261 331.763 225.616C331.286 225.969 330.712 226.145 330.042 226.145ZM330.042 225.007C330.633 225.007 331.094 224.719 331.427 224.142C331.762 223.565 331.93 222.732 331.93 221.641C331.93 220.916 331.853 220.304 331.7 219.804C331.549 219.301 331.332 218.92 331.048 218.662C330.766 218.401 330.431 218.27 330.042 218.27C329.454 218.27 328.992 218.56 328.657 219.139C328.322 219.719 328.153 220.553 328.15 221.641C328.15 222.368 328.225 222.983 328.376 223.486C328.529 223.986 328.746 224.365 329.028 224.624C329.309 224.879 329.647 225.007 330.042 225.007ZM337.332 224.534V218.773H338.478V224.534H337.332ZM335.027 222.224V221.082H340.788V222.224H335.027ZM345.209 221.636C345.209 222.707 345.069 223.692 344.787 224.589C344.506 225.487 344.096 226.315 343.556 227.074H342.388C342.598 226.793 342.794 226.447 342.976 226.038C343.158 225.629 343.317 225.182 343.453 224.696C343.59 224.207 343.696 223.702 343.773 223.179C343.85 222.656 343.888 222.142 343.888 221.636C343.888 220.963 343.821 220.28 343.688 219.587C343.554 218.893 343.374 218.25 343.147 217.656C342.919 217.062 342.667 216.578 342.388 216.203H343.556C344.096 216.962 344.506 217.79 344.787 218.688C345.069 219.585 345.209 220.568 345.209 221.636Z" fill="#8E8686"/>
<path d="M26.25 203.61H30.62V204.32H26.25V203.61ZM25.93 196H30.49V196.71H26.66V204.8H25.93V196ZM21.89 200.04H22.52V203.67H21.89V200.04ZM22.56 196.68V198.44H24.51V196.68H22.56ZM21.89 196.02H25.21V199.1H21.89V196.02ZM23.26 198.77H23.94V203.34H23.26V198.77ZM21.33 203.59C22.37 203.38 23.98 203 25.5 202.64L25.58 203.32C24.13 203.68 22.59 204.04 21.48 204.31L21.33 203.59ZM23.59 200.55H25.41V201.22H23.59V200.55ZM26.26 198.38H30.06V201.92H26.26V201.22H29.33V199.08H26.26V198.38ZM31.42 196.47H36.27V197.08H31.42V196.47ZM33.47 195.6H34.2V196.76H33.47V195.6ZM32.5 202.87C33.13 202.84 33.96 202.79 34.86 202.73L34.87 203.24C34.03 203.3 33.23 203.36 32.56 203.41L32.5 202.87ZM35.41 200.95H36.05V204.08C36.05 204.41 35.99 204.59 35.74 204.69C35.5 204.79 35.12 204.79 34.51 204.79C34.48 204.63 34.39 204.37 34.3 204.21C34.74 204.23 35.14 204.22 35.25 204.22C35.37 204.21 35.41 204.18 35.41 204.07V200.95ZM34.17 202.05L34.61 201.92C34.89 202.45 35.17 203.14 35.25 203.57L34.78 203.72C34.7 203.28 34.45 202.58 34.17 202.05ZM32.72 198.01L33.04 197.67C33.75 198.04 34.6 198.62 35.01 199.03L34.68 199.44C34.27 199.01 33.43 198.41 32.72 198.01ZM33.51 200.02L34.16 200.13C33.96 201.14 33.69 202.45 33.46 203.21L32.94 203.11C33.16 202.32 33.4 200.95 33.51 200.02ZM31.63 200.95H35.68V201.52H32.26V204.81H31.63V200.95ZM31.9 197.5H32.46V199.72H35.2V197.5H35.78V200.27H31.9V197.5ZM34.27 197.34L34.8 197.48C34.41 198.35 33.73 199.15 33.04 199.67C32.96 199.58 32.74 199.41 32.61 199.33C33.3 198.85 33.93 198.14 34.27 197.34ZM37.01 199.54H40.42V200.19H37.01V199.54ZM37.01 201.55H40.42V202.21H37.01V201.55ZM37.03 203.59H40.62V204.29H37.03V203.59ZM37.38 195.61L38.06 195.76C37.64 197.3 37 198.85 36.28 199.86C36.16 199.75 35.88 199.52 35.71 199.4C36.43 198.47 37.02 197.03 37.38 195.61ZM39.12 195.71L39.84 195.88C39.59 196.58 39.3 197.4 39.04 197.92L38.45 197.76C38.69 197.21 38.99 196.32 39.12 195.71ZM37.4 197.51H40.51V198.19H37.4V204.82H36.71V198.13L37.29 197.51H37.4ZM38.57 197.82H39.22V203.95H38.57V197.82ZM45.68 195.61L46.37 195.78C45.98 196.85 45.33 197.87 44.63 198.55C44.52 198.42 44.24 198.18 44.07 198.07C44.75 197.48 45.34 196.57 45.68 195.61ZM45.64 198.13L46.34 198.31C46.03 199.1 45.51 199.88 45.01 200.4C44.87 200.29 44.57 200.1 44.4 200.01C44.92 199.53 45.37 198.83 45.64 198.13ZM45.58 196.59H49.92V197.25H45.32L45.58 196.59ZM47.05 197.04H47.77V200.52C47.77 200.9 47.7 201.1 47.42 201.21C47.16 201.32 46.75 201.33 46.12 201.33C46.08 201.13 45.98 200.85 45.87 200.66C46.34 200.68 46.76 200.68 46.89 200.67C47.02 200.66 47.05 200.63 47.05 200.52V197.04ZM48.32 198.35L48.94 198.08C49.43 198.73 49.92 199.61 50.13 200.19L49.48 200.5C49.28 199.91 48.79 199 48.32 198.35ZM49.71 196.59H49.83L49.95 196.57L50.47 196.7C50.22 197.33 49.91 198.06 49.67 198.5L49.02 198.37C49.25 197.95 49.52 197.26 49.71 196.7V196.59ZM43.99 201.82H44.73V203.63C44.73 203.9 44.83 203.95 45.36 203.95C45.61 203.95 46.86 203.95 47.19 203.95C47.63 203.95 47.7 203.82 47.75 202.83C47.91 202.96 48.21 203.07 48.42 203.12C48.33 204.33 48.1 204.63 47.24 204.63C47.01 204.63 45.52 204.63 45.3 204.63C44.26 204.63 43.99 204.42 43.99 203.63V201.82ZM44.85 201.52L45.35 201.07C45.99 201.38 46.76 201.89 47.12 202.29L46.58 202.78C46.24 202.38 45.5 201.84 44.85 201.52ZM48.14 202.13L48.76 201.78C49.5 202.41 50.28 203.31 50.59 203.99L49.92 204.37C49.63 203.71 48.89 202.77 48.14 202.13ZM42.77 201.94L43.44 202.16C43.19 203.06 42.8 203.95 42.01 204.48L41.39 204.05C42.13 203.58 42.56 202.78 42.77 201.94ZM43.73 195.6L44.4 195.83C43.75 197.07 42.74 198.3 41.77 199.09C41.68 198.94 41.43 198.64 41.28 198.51C42.22 197.8 43.16 196.7 43.73 195.6ZM42.81 197.48L43.52 196.77L43.53 196.78V201.32H42.81V197.48ZM56.11 199.9L56.72 199.59C57.29 200.29 57.89 201.25 58.13 201.89L57.47 202.24C57.25 201.61 56.67 200.62 56.11 199.9ZM56.17 197.41H59.97V198.12H56.17V197.41ZM59.67 197.41H60.39C60.39 197.41 60.39 197.7 60.39 197.8C60.22 202.31 60.06 203.87 59.65 204.37C59.42 204.66 59.2 204.74 58.82 204.78C58.48 204.81 57.87 204.8 57.27 204.76C57.25 204.54 57.16 204.22 57.03 204.01C57.69 204.07 58.31 204.07 58.56 204.07C58.76 204.07 58.89 204.05 58.99 203.92C59.34 203.56 59.51 201.9 59.67 197.58V197.41ZM56.54 195.6L57.31 195.77C56.87 197.22 56.18 198.62 55.42 199.53C55.27 199.41 54.94 199.19 54.75 199.09C55.53 198.25 56.17 196.93 56.54 195.6ZM52.95 195.61L53.62 195.86C53.24 196.6 52.76 197.49 52.37 198.03L51.85 197.81C52.23 197.23 52.69 196.27 52.95 195.61ZM54.16 196.75L54.81 197.03C54.11 198.15 53.13 199.59 52.37 200.45L51.89 200.2C52.66 199.31 53.61 197.81 54.16 196.75ZM51.37 197.71L51.75 197.21C52.31 197.68 52.94 198.34 53.21 198.78L52.81 199.35C52.54 198.88 51.91 198.19 51.37 197.71ZM53.84 199.07L54.4 198.83C54.82 199.47 55.25 200.33 55.4 200.88L54.8 201.16C54.65 200.6 54.25 199.73 53.84 199.07ZM51.35 200.08C52.25 200.05 53.58 200 54.9 199.94V200.55C53.63 200.63 52.36 200.7 51.41 200.75L51.35 200.08ZM54.09 201.46L54.66 201.28C54.95 201.89 55.23 202.68 55.34 203.2L54.73 203.41C54.64 202.89 54.37 202.08 54.09 201.46ZM51.9 201.32L52.55 201.44C52.41 202.38 52.16 203.35 51.84 203.99C51.71 203.91 51.41 203.77 51.25 203.7C51.58 203.09 51.78 202.2 51.9 201.32ZM53.05 200.37H53.73V204.83H53.05V200.37ZM62.4134 204.067C62.2192 204.067 62.0523 203.999 61.9126 203.862C61.773 203.722 61.7031 203.554 61.7031 203.357C61.7031 203.163 61.773 202.997 61.9126 202.86C62.0523 202.72 62.2192 202.651 62.4134 202.651C62.6075 202.651 62.7744 202.72 62.9141 202.86C63.0537 202.997 63.1236 203.163 63.1236 203.357C63.1236 203.487 63.0904 203.607 63.0241 203.716C62.9602 203.822 62.875 203.908 62.7685 203.972C62.6619 204.036 62.5436 204.067 62.4134 204.067ZM65.2454 204.067C65.0513 204.067 64.8844 203.999 64.7447 203.862C64.605 203.722 64.5352 203.554 64.5352 203.357C64.5352 203.163 64.605 202.997 64.7447 202.86C64.8844 202.72 65.0513 202.651 65.2454 202.651C65.4395 202.651 65.6064 202.72 65.7461 202.86C65.8858 202.997 65.9556 203.163 65.9556 203.357C65.9556 203.487 65.9225 203.607 65.8562 203.716C65.7923 203.822 65.707 203.908 65.6005 203.972C65.494 204.036 65.3756 204.067 65.2454 204.067ZM68.0774 204.067C67.8833 204.067 67.7164 203.999 67.5767 203.862C67.437 203.722 67.3672 203.554 67.3672 203.357C67.3672 203.163 67.437 202.997 67.5767 202.86C67.7164 202.72 67.8833 202.651 68.0774 202.651C68.2715 202.651 68.4384 202.72 68.5781 202.86C68.7178 202.997 68.7876 203.163 68.7876 203.357C68.7876 203.487 68.7545 203.607 68.6882 203.716C68.6243 203.822 68.5391 203.908 68.4325 203.972C68.326 204.036 68.2076 204.067 68.0774 204.067ZM73.6661 199.23L74.5461 199.45C73.9161 200.96 73.0461 202.83 72.3061 204.04L71.6161 203.82C72.3261 202.59 73.1961 200.64 73.6661 199.23ZM70.3861 203.59C72.2161 203.53 75.1261 203.41 77.8061 203.28L77.7861 204C75.1661 204.15 72.3661 204.3 70.4861 204.38L70.3861 203.59ZM75.5861 201.42L76.3061 201.09C77.2161 202.14 78.2461 203.53 78.7461 204.44L77.9861 204.85C77.5161 203.94 76.4761 202.48 75.5861 201.42ZM72.6561 195.9L73.4861 196.13C72.8161 197.74 71.7661 199.27 70.7061 200.26C70.5461 200.11 70.1961 199.84 69.9861 199.72C71.0861 198.82 72.0761 197.38 72.6561 195.9ZM76.2361 195.89C76.8961 197.2 78.1561 198.78 79.0761 199.61C78.8761 199.77 78.5961 200.06 78.4461 200.25C77.5161 199.3 76.2661 197.6 75.4961 196.2L76.2361 195.89ZM81.7761 198.57V199.84H87.3161V198.57H81.7761ZM81.7761 196.68V197.93H87.3161V196.68H81.7761ZM81.0361 196H88.0961V200.52H81.0361V196ZM80.0361 203.82H88.9661V204.52H80.0361V203.82ZM80.7061 201.67H88.4261V202.38H80.7061V201.67ZM84.1661 196.43H84.8861V200.41H84.9261V204.22H84.1261V200.41H84.1661V196.43Z" fill="#8E8686"/>
<path d="M22.04 218.28H29.92V219.02H22.04V218.28ZM21.52 222.53H30.49V223.28H21.52V222.53ZM22.74 219.71L23.41 219.5C23.82 220.23 24.23 221.18 24.37 221.77L23.65 222.01C23.51 221.42 23.12 220.45 22.74 219.71ZM28.54 219.46L29.34 219.68C28.96 220.49 28.49 221.45 28.1 222.05L27.46 221.84C27.83 221.21 28.3 220.18 28.54 219.46ZM25.59 218.57H26.36V226.8H25.59V218.57ZM35.38 221.29H38.49V221.97H35.38V221.29ZM34.91 224.51C35.82 224.21 37.25 223.69 38.6 223.19L38.74 223.83C37.52 224.32 36.2 224.84 35.22 225.21L34.91 224.51ZM35.79 219.26H39.91V219.98H35.79V219.26ZM39.68 219.26H40.43C40.43 219.26 40.42 219.56 40.42 219.66C40.27 224.28 40.13 225.89 39.72 226.38C39.5 226.67 39.27 226.76 38.9 226.8C38.56 226.83 37.94 226.82 37.33 226.78C37.32 226.57 37.22 226.24 37.09 226.02C37.76 226.09 38.37 226.09 38.61 226.09C38.81 226.09 38.93 226.06 39.04 225.93C39.38 225.57 39.54 223.91 39.68 219.44V219.26ZM36.06 217.6L36.83 217.77C36.38 219.3 35.67 220.76 34.86 221.71C34.72 221.58 34.39 221.34 34.2 221.24C35.03 220.36 35.68 219.01 36.06 217.6ZM31.52 219.94H34.68V220.65H31.52V219.94ZM32.77 217.66H33.5V224.21H32.77V217.66ZM31.33 224.4C32.19 224.09 33.5 223.56 34.75 223.05L34.92 223.75C33.77 224.25 32.54 224.77 31.6 225.15L31.33 224.4ZM43.99 220.3L44.73 220.53C44.03 221.92 42.95 223.25 41.89 224.11C41.76 223.98 41.45 223.71 41.27 223.59C42.35 222.81 43.37 221.58 43.99 220.3ZM46.11 220.39H46.85V225.45C46.85 225.87 46.95 225.95 47.46 225.95C47.71 225.95 48.95 225.95 49.27 225.95C49.75 225.95 49.83 225.69 49.89 224.4C50.06 224.53 50.37 224.66 50.57 224.71C50.47 226.22 50.25 226.66 49.31 226.66C49.09 226.66 47.62 226.66 47.4 226.66C46.39 226.66 46.11 226.4 46.11 225.44V220.39ZM49.58 221.26L50.16 221.83C49.22 222.45 47.85 223.06 46.64 223.55C46.6 223.39 46.47 223.14 46.37 222.99C47.53 222.51 48.83 221.84 49.58 221.26ZM41.59 218.52H50.39V219.24H41.59V218.52ZM44 217.6H44.74V220.3H44V217.6ZM47.28 217.6H48.02V220.36H47.28V217.6ZM43.16 222.2L43.89 221.46V221.47V226.8H43.16V222.2ZM52.75 219.22H59.03V218.66H52.07V218.16H59.73V219.73H52.75V219.22ZM52.52 219.22H53.23C53.04 219.8 52.81 220.46 52.63 220.9L51.94 220.85C52.14 220.4 52.36 219.76 52.52 219.22ZM52.48 220.26H59.89V220.77H52.32L52.48 220.26ZM59.65 220.26H60.36C60.36 220.26 60.35 220.42 60.34 220.51C60.28 221.12 60.21 221.42 60.05 221.58C59.93 221.7 59.76 221.75 59.56 221.76C59.39 221.77 59.04 221.77 58.68 221.74C58.67 221.6 58.61 221.38 58.54 221.24C58.85 221.27 59.12 221.28 59.23 221.28C59.35 221.28 59.41 221.27 59.46 221.22C59.54 221.14 59.59 220.91 59.65 220.36V220.26ZM54.53 217.61H55.22V219.41C55.22 220.73 54.81 221.78 51.91 222.34C51.85 222.17 51.69 221.89 51.56 221.76C54.2 221.26 54.53 220.42 54.53 219.39V217.61ZM56.77 217.61H57.48V221.52H56.77V217.61ZM53.54 223.11V223.73H58.57V223.11H53.54ZM53.54 224.2V224.83H58.57V224.2H53.54ZM53.54 222.03V222.64H58.57V222.03H53.54ZM52.81 221.54H59.32V225.31H52.81V221.54ZM56.81 225.81L57.4 225.42C58.52 225.72 59.74 226.12 60.47 226.42L59.66 226.82C59.02 226.52 57.92 226.14 56.81 225.81ZM54.5 225.41L55.17 225.71C54.36 226.16 53.08 226.59 52.08 226.84C51.96 226.69 51.7 226.41 51.53 226.28C52.57 226.08 53.78 225.77 54.5 225.41ZM66.11 221.9L66.72 221.59C67.29 222.29 67.89 223.25 68.13 223.89L67.47 224.24C67.25 223.61 66.67 222.62 66.11 221.9ZM66.17 219.41H69.97V220.12H66.17V219.41ZM69.67 219.41H70.39C70.39 219.41 70.39 219.7 70.39 219.8C70.22 224.31 70.06 225.87 69.65 226.37C69.42 226.66 69.2 226.74 68.82 226.78C68.48 226.81 67.87 226.8 67.27 226.76C67.25 226.54 67.16 226.22 67.03 226.01C67.69 226.07 68.31 226.07 68.56 226.07C68.76 226.07 68.89 226.05 68.99 225.92C69.34 225.56 69.51 223.9 69.67 219.58V219.41ZM66.54 217.6L67.31 217.77C66.87 219.22 66.18 220.62 65.42 221.53C65.27 221.41 64.94 221.19 64.75 221.09C65.53 220.25 66.17 218.93 66.54 217.6ZM62.95 217.61L63.62 217.86C63.24 218.6 62.76 219.49 62.37 220.03L61.85 219.81C62.23 219.23 62.69 218.27 62.95 217.61ZM64.16 218.75L64.81 219.03C64.11 220.15 63.13 221.59 62.37 222.45L61.89 222.2C62.66 221.31 63.61 219.81 64.16 218.75ZM61.37 219.71L61.75 219.21C62.31 219.68 62.94 220.34 63.21 220.78L62.81 221.35C62.54 220.88 61.91 220.19 61.37 219.71ZM63.84 221.07L64.4 220.83C64.82 221.47 65.25 222.33 65.4 222.88L64.8 223.16C64.65 222.6 64.25 221.73 63.84 221.07ZM61.35 222.08C62.25 222.05 63.58 222 64.9 221.94V222.55C63.63 222.63 62.36 222.7 61.41 222.75L61.35 222.08ZM64.09 223.46L64.66 223.28C64.95 223.89 65.23 224.68 65.34 225.2L64.73 225.41C64.64 224.89 64.37 224.08 64.09 223.46ZM61.9 223.32L62.55 223.44C62.41 224.38 62.16 225.35 61.84 225.99C61.71 225.91 61.41 225.77 61.25 225.7C61.58 225.09 61.78 224.2 61.9 223.32ZM63.05 222.37H63.73V226.83H63.05V222.37ZM74.4588 218.727V226H73.358V219.828H73.3153L71.5753 220.964V219.913L73.3899 218.727H74.4588ZM78.9581 226.121C78.397 226.118 77.9176 225.97 77.5199 225.677C77.1222 225.383 76.8179 224.956 76.6072 224.395C76.3965 223.834 76.2912 223.158 76.2912 222.367C76.2912 221.579 76.3965 220.905 76.6072 220.347C76.8203 219.788 77.1257 219.362 77.5234 219.068C77.9235 218.775 78.4018 218.628 78.9581 218.628C79.5144 218.628 79.9915 218.776 80.3892 219.072C80.7869 219.365 81.0911 219.791 81.3018 220.35C81.5149 220.906 81.6214 221.579 81.6214 222.367C81.6214 223.16 81.5161 223.837 81.3054 224.398C81.0947 224.957 80.7905 225.384 80.3928 225.68C79.995 225.974 79.5168 226.121 78.9581 226.121ZM78.9581 225.173C79.4505 225.173 79.8352 224.932 80.1122 224.452C80.3916 223.971 80.5312 223.276 80.5312 222.367C80.5312 221.763 80.4673 221.253 80.3395 220.837C80.214 220.418 80.0329 220.1 79.7962 219.885C79.5618 219.667 79.2824 219.558 78.9581 219.558C78.468 219.558 78.0833 219.8 77.804 220.283C77.5246 220.766 77.3838 221.46 77.3814 222.367C77.3814 222.973 77.4441 223.486 77.5696 223.905C77.6974 224.321 77.8786 224.638 78.1129 224.853C78.3473 225.066 78.629 225.173 78.9581 225.173ZM85.4132 226.121C84.8521 226.118 84.3727 225.97 83.975 225.677C83.5772 225.383 83.273 224.956 83.0623 224.395C82.8516 223.834 82.7463 223.158 82.7463 222.367C82.7463 221.579 82.8516 220.905 83.0623 220.347C83.2754 219.788 83.5808 219.362 83.9785 219.068C84.3786 218.775 84.8568 218.628 85.4132 218.628C85.9695 218.628 86.4466 218.776 86.8443 219.072C87.242 219.365 87.5462 219.791 87.7569 220.35C87.97 220.906 88.0765 221.579 88.0765 222.367C88.0765 223.16 87.9712 223.837 87.7605 224.398C87.5498 224.957 87.2456 225.384 86.8478 225.68C86.4501 225.974 85.9719 226.121 85.4132 226.121ZM85.4132 225.173C85.9056 225.173 86.2903 224.932 86.5673 224.452C86.8467 223.971 86.9863 223.276 86.9863 222.367C86.9863 221.763 86.9224 221.253 86.7946 220.837C86.6691 220.418 86.488 220.1 86.2512 219.885C86.0169 219.667 85.7375 219.558 85.4132 219.558C84.9231 219.558 84.5384 219.8 84.2591 220.283C83.9797 220.766 83.8388 221.46 83.8365 222.367C83.8365 222.973 83.8992 223.486 84.0247 223.905C84.1525 224.321 84.3336 224.638 84.568 224.853C84.8024 225.066 85.0841 225.173 85.4132 225.173ZM89.4393 223.166C89.4298 222.757 89.4902 222.42 89.6204 222.158C89.753 221.895 89.9305 221.701 90.1531 221.575C90.3756 221.447 90.6206 221.384 90.8881 221.384C91.1249 221.384 91.3439 221.434 91.5451 221.536C91.7463 221.636 91.976 221.799 92.234 222.026C92.395 222.166 92.5264 222.268 92.6282 222.332C92.73 222.393 92.8436 222.424 92.9691 222.424C93.1609 222.424 93.3136 222.353 93.4272 222.211C93.5432 222.067 93.5988 221.853 93.5941 221.572H94.4925C94.502 221.984 94.4405 222.321 94.3079 222.584C94.1777 222.847 94.0001 223.041 93.7752 223.166C93.5527 223.292 93.3088 223.354 93.0437 223.354C92.8046 223.354 92.5844 223.304 92.3832 223.202C92.1819 223.098 91.9535 222.934 91.6978 222.712C91.5321 222.567 91.3995 222.465 91.3001 222.406C91.2006 222.345 91.0882 222.314 90.9627 222.314C90.7804 222.314 90.6289 222.38 90.5082 222.513C90.3898 222.643 90.333 222.861 90.3377 223.166H89.4393ZM95.7035 226V225.205L98.1644 222.655C98.4272 222.378 98.6438 222.135 98.8143 221.927C98.9871 221.716 99.1161 221.516 99.2013 221.327C99.2866 221.137 99.3292 220.936 99.3292 220.723C99.3292 220.482 99.2724 220.273 99.1587 220.098C99.0451 219.92 98.89 219.784 98.6935 219.69C98.497 219.593 98.2757 219.544 98.0295 219.544C97.7691 219.544 97.5418 219.597 97.3477 219.704C97.1535 219.81 97.0044 219.961 96.9002 220.155C96.796 220.349 96.744 220.576 96.744 220.837H95.6964C95.6964 220.394 95.7982 220.007 96.0018 219.675C96.2054 219.344 96.4847 219.087 96.8398 218.905C97.195 218.72 97.5986 218.628 98.0508 218.628C98.5077 218.628 98.9102 218.719 99.2582 218.901C99.6085 219.081 99.882 219.327 100.078 219.64C100.275 219.95 100.373 220.3 100.373 220.691C100.373 220.961 100.322 221.225 100.221 221.483C100.121 221.741 99.9471 222.029 99.6985 222.346C99.4499 222.661 99.1043 223.043 98.6616 223.493L97.2163 225.006V225.059H100.49V226H95.7035ZM104.368 226.121C103.807 226.118 103.328 225.97 102.93 225.677C102.532 225.383 102.228 224.956 102.017 224.395C101.807 223.834 101.701 223.158 101.701 222.367C101.701 221.579 101.807 220.905 102.017 220.347C102.23 219.788 102.536 219.362 102.934 219.068C103.334 218.775 103.812 218.628 104.368 218.628C104.925 218.628 105.402 218.776 105.799 219.072C106.197 219.365 106.501 219.791 106.712 220.35C106.925 220.906 107.032 221.579 107.032 222.367C107.032 223.16 106.926 223.837 106.716 224.398C106.505 224.957 106.201 225.384 105.803 225.68C105.405 225.974 104.927 226.121 104.368 226.121ZM104.368 225.173C104.861 225.173 105.245 224.932 105.522 224.452C105.802 223.971 105.941 223.276 105.941 222.367C105.941 221.763 105.877 221.253 105.75 220.837C105.624 220.418 105.443 220.1 105.206 219.885C104.972 219.667 104.693 219.558 104.368 219.558C103.878 219.558 103.493 219.8 103.214 220.283C102.935 220.766 102.794 221.46 102.792 222.367C102.792 222.973 102.854 223.486 102.98 223.905C103.108 224.321 103.289 224.638 103.523 224.853C103.757 225.066 104.039 225.173 104.368 225.173ZM110.823 226.121C110.262 226.118 109.783 225.97 109.385 225.677C108.987 225.383 108.683 224.956 108.472 224.395C108.262 223.834 108.156 223.158 108.156 222.367C108.156 221.579 108.262 220.905 108.472 220.347C108.686 219.788 108.991 219.362 109.389 219.068C109.789 218.775 110.267 218.628 110.823 218.628C111.38 218.628 111.857 218.776 112.254 219.072C112.652 219.365 112.956 219.791 113.167 220.35C113.38 220.906 113.487 221.579 113.487 222.367C113.487 223.16 113.381 223.837 113.171 224.398C112.96 224.957 112.656 225.384 112.258 225.68C111.86 225.974 111.382 226.121 110.823 226.121ZM110.823 225.173C111.316 225.173 111.7 224.932 111.977 224.452C112.257 223.971 112.396 223.276 112.396 222.367C112.396 221.763 112.333 221.253 112.205 220.837C112.079 220.418 111.898 220.1 111.661 219.885C111.427 219.667 111.148 219.558 110.823 219.558C110.333 219.558 109.949 219.8 109.669 220.283C109.39 220.766 109.249 221.46 109.247 222.367C109.247 222.973 109.309 223.486 109.435 223.905C109.563 224.321 109.744 224.638 109.978 224.853C110.213 225.066 110.494 225.173 110.823 225.173Z" fill="#5D8031"/>
<rect width="24" height="24" transform="translate(321 14)" fill="white"/>
<path d="M338 32L333 29.82L328 32V19H338M338 17H328C327.47 17 326.961 17.2107 326.586 17.5858C326.211 17.9609 326 18.4696 326 19V35L333 32L340 35V19C340 18.4696 339.789 17.9609 339.414 17.5858C339.039 17.2107 338.53 17 338 17Z" fill="#D9D9D9"/>
</svg>
